<mxfile host="app.diagrams.net" modified="2024-06-29T14:45:40.114Z" agent="Mozilla/5.0 (Windows NT 10.0; Win64; x64) AppleWebKit/537.36 (KHTML, like Gecko) Chrome/126.0.0.0 Safari/537.36" etag="rHNaXjCSifiwjBN1H56R" version="24.6.4" type="github">
  <diagram name="UML Class Diagram" id="6YZN1_n6gHAGhhnVUBVz">
    <mxGraphModel dx="2327" dy="746" grid="1" gridSize="10" guides="1" tooltips="1" connect="1" arrows="1" fold="1" page="1" pageScale="1" pageWidth="827" pageHeight="1169" math="0" shadow="0">
      <root>
        <mxCell id="0" />
        <mxCell id="1" parent="0" />
        <mxCell id="-oXuybSZxoCCTaO89u0w-2" value="Customer" style="shape=rectangle;whiteSpace=wrap;html=1" vertex="1" parent="1">
          <mxGeometry x="-30" y="110" width="160" height="100" as="geometry" />
        </mxCell>
        <mxCell id="-oXuybSZxoCCTaO89u0w-3" value="name" style="text;html=1;verticalAlign=top;whiteSpace=wrap" vertex="1" parent="-oXuybSZxoCCTaO89u0w-2">
          <mxGeometry y="20" width="160" height="20" as="geometry" />
        </mxCell>
        <mxCell id="-oXuybSZxoCCTaO89u0w-4" value="contactInfo" style="text;html=1;verticalAlign=top;whiteSpace=wrap" vertex="1" parent="-oXuybSZxoCCTaO89u0w-2">
          <mxGeometry y="40" width="160" height="20" as="geometry" />
        </mxCell>
        <mxCell id="-oXuybSZxoCCTaO89u0w-5" value="bookAppointment()" style="text;html=1;verticalAlign=top;whiteSpace=wrap" vertex="1" parent="-oXuybSZxoCCTaO89u0w-2">
          <mxGeometry y="60" width="160" height="20" as="geometry" />
        </mxCell>
        <mxCell id="-oXuybSZxoCCTaO89u0w-6" value="cancelAppointment()" style="text;html=1;verticalAlign=top;whiteSpace=wrap" vertex="1" parent="-oXuybSZxoCCTaO89u0w-2">
          <mxGeometry y="80" width="160" height="20" as="geometry" />
        </mxCell>
        <mxCell id="-oXuybSZxoCCTaO89u0w-7" value="Appointment" style="shape=rectangle;whiteSpace=wrap;html=1" vertex="1" parent="1">
          <mxGeometry x="254" y="90" width="160" height="140" as="geometry" />
        </mxCell>
        <mxCell id="-oXuybSZxoCCTaO89u0w-8" value="appointmentId" style="text;html=1;verticalAlign=top;whiteSpace=wrap" vertex="1" parent="-oXuybSZxoCCTaO89u0w-7">
          <mxGeometry y="20" width="160" height="20" as="geometry" />
        </mxCell>
        <mxCell id="-oXuybSZxoCCTaO89u0w-9" value="date" style="text;html=1;verticalAlign=top;whiteSpace=wrap" vertex="1" parent="-oXuybSZxoCCTaO89u0w-7">
          <mxGeometry y="40" width="160" height="20" as="geometry" />
        </mxCell>
        <mxCell id="-oXuybSZxoCCTaO89u0w-10" value="time" style="text;html=1;verticalAlign=top;whiteSpace=wrap" vertex="1" parent="-oXuybSZxoCCTaO89u0w-7">
          <mxGeometry y="60" width="160" height="20" as="geometry" />
        </mxCell>
        <mxCell id="-oXuybSZxoCCTaO89u0w-11" value="customer" style="text;html=1;verticalAlign=top;whiteSpace=wrap" vertex="1" parent="-oXuybSZxoCCTaO89u0w-7">
          <mxGeometry y="80" width="160" height="20" as="geometry" />
        </mxCell>
        <mxCell id="-oXuybSZxoCCTaO89u0w-12" value="barber" style="text;html=1;verticalAlign=top;whiteSpace=wrap" vertex="1" parent="-oXuybSZxoCCTaO89u0w-7">
          <mxGeometry y="100" width="160" height="20" as="geometry" />
        </mxCell>
        <mxCell id="-oXuybSZxoCCTaO89u0w-13" value="schedule()" style="text;html=1;verticalAlign=top;whiteSpace=wrap" vertex="1" parent="-oXuybSZxoCCTaO89u0w-7">
          <mxGeometry y="120" width="160" height="20" as="geometry" />
        </mxCell>
        <mxCell id="-oXuybSZxoCCTaO89u0w-14" value="reschedule()" style="text;html=1;verticalAlign=top;whiteSpace=wrap" vertex="1" parent="-oXuybSZxoCCTaO89u0w-7">
          <mxGeometry y="140" width="160" height="20" as="geometry" />
        </mxCell>
        <mxCell id="-oXuybSZxoCCTaO89u0w-15" value="cancel()" style="text;html=1;verticalAlign=top;whiteSpace=wrap" vertex="1" parent="-oXuybSZxoCCTaO89u0w-7">
          <mxGeometry y="160" width="160" height="20" as="geometry" />
        </mxCell>
        <mxCell id="-oXuybSZxoCCTaO89u0w-16" value="Barber" style="shape=rectangle;whiteSpace=wrap;html=1" vertex="1" parent="1">
          <mxGeometry x="530" y="400" width="160" height="80" as="geometry" />
        </mxCell>
        <mxCell id="-oXuybSZxoCCTaO89u0w-17" value="name" style="text;html=1;verticalAlign=top;whiteSpace=wrap" vertex="1" parent="-oXuybSZxoCCTaO89u0w-16">
          <mxGeometry y="20" width="160" height="20" as="geometry" />
        </mxCell>
        <mxCell id="-oXuybSZxoCCTaO89u0w-18" value="experienceLevel" style="text;html=1;verticalAlign=top;whiteSpace=wrap" vertex="1" parent="-oXuybSZxoCCTaO89u0w-16">
          <mxGeometry y="40" width="160" height="20" as="geometry" />
        </mxCell>
        <mxCell id="-oXuybSZxoCCTaO89u0w-19" value="performHaircut()" style="text;html=1;verticalAlign=top;whiteSpace=wrap" vertex="1" parent="-oXuybSZxoCCTaO89u0w-16">
          <mxGeometry y="60" width="160" height="20" as="geometry" />
        </mxCell>
        <mxCell id="-oXuybSZxoCCTaO89u0w-20" value="updateSchedule()" style="text;html=1;verticalAlign=top;whiteSpace=wrap" vertex="1" parent="-oXuybSZxoCCTaO89u0w-16">
          <mxGeometry y="80" width="160" height="20" as="geometry" />
        </mxCell>
        <mxCell id="-oXuybSZxoCCTaO89u0w-21" value="Service" style="shape=rectangle;whiteSpace=wrap;html=1" vertex="1" parent="1">
          <mxGeometry x="570" y="100" width="160" height="120" as="geometry" />
        </mxCell>
        <mxCell id="-oXuybSZxoCCTaO89u0w-22" value="serviceName" style="text;html=1;verticalAlign=top;whiteSpace=wrap" vertex="1" parent="-oXuybSZxoCCTaO89u0w-21">
          <mxGeometry y="20" width="160" height="20" as="geometry" />
        </mxCell>
        <mxCell id="-oXuybSZxoCCTaO89u0w-23" value="duration" style="text;html=1;verticalAlign=top;whiteSpace=wrap" vertex="1" parent="-oXuybSZxoCCTaO89u0w-21">
          <mxGeometry y="40" width="160" height="20" as="geometry" />
        </mxCell>
        <mxCell id="-oXuybSZxoCCTaO89u0w-24" value="price" style="text;html=1;verticalAlign=top;whiteSpace=wrap" vertex="1" parent="-oXuybSZxoCCTaO89u0w-21">
          <mxGeometry y="60" width="160" height="20" as="geometry" />
        </mxCell>
        <mxCell id="-oXuybSZxoCCTaO89u0w-25" value="addService()" style="text;html=1;verticalAlign=top;whiteSpace=wrap" vertex="1" parent="-oXuybSZxoCCTaO89u0w-21">
          <mxGeometry y="80" width="160" height="20" as="geometry" />
        </mxCell>
        <mxCell id="-oXuybSZxoCCTaO89u0w-26" value="removeService()" style="text;html=1;verticalAlign=top;whiteSpace=wrap" vertex="1" parent="-oXuybSZxoCCTaO89u0w-21">
          <mxGeometry y="100" width="160" height="20" as="geometry" />
        </mxCell>
        <mxCell id="-oXuybSZxoCCTaO89u0w-27" value="updateService()" style="text;html=1;verticalAlign=top;whiteSpace=wrap" vertex="1" parent="-oXuybSZxoCCTaO89u0w-21">
          <mxGeometry y="120" width="160" height="20" as="geometry" />
        </mxCell>
        <mxCell id="-oXuybSZxoCCTaO89u0w-28" value="Manager" style="shape=rectangle;whiteSpace=wrap;html=1" vertex="1" parent="1">
          <mxGeometry x="254" y="400" width="160" height="140" as="geometry" />
        </mxCell>
        <mxCell id="-oXuybSZxoCCTaO89u0w-29" value="firstName" style="text;html=1;verticalAlign=top;whiteSpace=wrap" vertex="1" parent="-oXuybSZxoCCTaO89u0w-28">
          <mxGeometry y="20" width="160" height="20" as="geometry" />
        </mxCell>
        <mxCell id="-oXuybSZxoCCTaO89u0w-30" value="lastName" style="text;html=1;verticalAlign=top;whiteSpace=wrap" vertex="1" parent="-oXuybSZxoCCTaO89u0w-28">
          <mxGeometry y="40" width="160" height="20" as="geometry" />
        </mxCell>
        <mxCell id="-oXuybSZxoCCTaO89u0w-31" value="avatar" style="text;html=1;verticalAlign=top;whiteSpace=wrap" vertex="1" parent="-oXuybSZxoCCTaO89u0w-28">
          <mxGeometry y="60" width="160" height="20" as="geometry" />
        </mxCell>
        <mxCell id="-oXuybSZxoCCTaO89u0w-32" value="viewDashboard()" style="text;html=1;verticalAlign=top;whiteSpace=wrap" vertex="1" parent="-oXuybSZxoCCTaO89u0w-28">
          <mxGeometry y="80" width="160" height="20" as="geometry" />
        </mxCell>
        <mxCell id="-oXuybSZxoCCTaO89u0w-33" value="manageAppointment()" style="text;html=1;verticalAlign=top;whiteSpace=wrap" vertex="1" parent="-oXuybSZxoCCTaO89u0w-28">
          <mxGeometry y="100" width="160" height="20" as="geometry" />
        </mxCell>
        <mxCell id="-oXuybSZxoCCTaO89u0w-34" value="manageBarber()" style="text;html=1;verticalAlign=top;whiteSpace=wrap" vertex="1" parent="-oXuybSZxoCCTaO89u0w-28">
          <mxGeometry y="120" width="160" height="20" as="geometry" />
        </mxCell>
        <mxCell id="-oXuybSZxoCCTaO89u0w-35" value="manageService()" style="text;html=1;verticalAlign=top;whiteSpace=wrap" vertex="1" parent="-oXuybSZxoCCTaO89u0w-28">
          <mxGeometry y="140" width="160" height="20" as="geometry" />
        </mxCell>
        <mxCell id="-oXuybSZxoCCTaO89u0w-36" value="manageSettings()" style="text;html=1;verticalAlign=top;whiteSpace=wrap" vertex="1" parent="-oXuybSZxoCCTaO89u0w-28">
          <mxGeometry y="160" width="160" height="20" as="geometry" />
        </mxCell>
        <mxCell id="-oXuybSZxoCCTaO89u0w-37" edge="1" parent="1" source="-oXuybSZxoCCTaO89u0w-2" target="-oXuybSZxoCCTaO89u0w-7">
          <mxGeometry relative="1" as="geometry" />
        </mxCell>
        <mxCell id="-oXuybSZxoCCTaO89u0w-38" edge="1" parent="1" source="-oXuybSZxoCCTaO89u0w-7" target="-oXuybSZxoCCTaO89u0w-21">
          <mxGeometry relative="1" as="geometry" />
        </mxCell>
        <mxCell id="-oXuybSZxoCCTaO89u0w-39" edge="1" parent="1" source="-oXuybSZxoCCTaO89u0w-7" target="-oXuybSZxoCCTaO89u0w-16">
          <mxGeometry relative="1" as="geometry" />
        </mxCell>
        <mxCell id="-oXuybSZxoCCTaO89u0w-40" edge="1" parent="1" source="-oXuybSZxoCCTaO89u0w-16" target="-oXuybSZxoCCTaO89u0w-21">
          <mxGeometry relative="1" as="geometry" />
        </mxCell>
        <mxCell id="-oXuybSZxoCCTaO89u0w-41" edge="1" parent="1" source="-oXuybSZxoCCTaO89u0w-7" target="-oXuybSZxoCCTaO89u0w-28">
          <mxGeometry relative="1" as="geometry" />
        </mxCell>
      </root>
    </mxGraphModel>
  </diagram>
</mxfile>
